<?xml version="1.0" standalone="no"?>
<!DOCTYPE svg PUBLIC "-//W3C//DTD SVG 20010904//EN"
 "http://www.w3.org/TR/2001/REC-SVG-20010904/DTD/svg10.dtd">
<svg version="1.0" xmlns="http://www.w3.org/2000/svg"
 width="179.000000pt" height="179.000000pt" viewBox="0 0 179.000000 179.000000"
 preserveAspectRatio="xMidYMid meet">
<metadata>
Created by potrace 1.11, written by Peter Selinger 2001-2013
</metadata>
<g transform="translate(0.000000,179.000000) scale(0.100000,-0.100000)"
fill="#000000" stroke="none">
<path d="M10 900 l0 -890 890 0 890 0 0 890 0 890 -890 0 -890 0 0 -890z m650
395 l0 -45 -70 0 -70 0 0 -105 0 -105 65 0 65 0 0 -40 0 -39 -62 -3 -63 -3 -3
-142 -3 -143 -44 0 -45 0 0 328 c0 181 3 332 7 335 3 4 55 7 115 7 l108 0 0
-45z m835 -91 c9 -4 21 -18 26 -32 22 -58 -60 -101 -95 -50 -21 30 -20 44 4
68 21 21 37 24 65 14z m-544 -20 c51 -26 59 -62 59 -256 0 -156 -2 -176 -20
-206 -52 -84 -202 -79 -247 9 -9 16 -13 81 -13 202 0 195 6 224 58 251 36 20
125 20 163 0z m317 4 c8 -8 15 -9 22 -2 5 5 28 8 50 6 l41 -4 -3 -312 c-3
-349 -5 -358 -74 -391 -83 -39 -181 2 -204 84 -16 57 -14 61 33 61 40 0 44 -2
55 -34 14 -39 41 -53 70 -37 19 10 32 50 32 98 0 20 -3 24 -17 17 -10 -4 -37
-9 -60 -12 -36 -3 -46 0 -80 31 l-38 35 -3 179 c-4 196 3 240 45 272 29 24
111 29 131 9z"/>
<path d="M1488 1165 c2 -14 8 -28 13 -31 15 -9 10 33 -5 45 -11 9 -12 6 -8
-14z"/>
<path d="M1431 1154 c0 -11 3 -14 6 -6 3 7 2 16 -1 19 -3 4 -6 -2 -5 -13z"/>
<path d="M1456 1125 c-3 -9 0 -15 9 -15 16 0 20 16 6 24 -5 3 -11 -1 -15 -9z"/>
<path d="M830 1101 c-5 -11 -10 -87 -10 -174 0 -136 2 -156 18 -170 25 -23 48
-21 66 5 13 18 16 53 16 171 0 83 -5 157 -10 168 -7 12 -21 19 -40 19 -19 0
-33 -7 -40 -19z"/>
<path d="M1196 1098 c-13 -18 -16 -51 -16 -170 0 -135 2 -150 20 -168 32 -32
61 -24 79 23 16 40 14 276 -2 307 -17 34 -60 39 -81 8z"/>
</g>
</svg>
